<?xml version="1.0" standalone="no"?>
<!DOCTYPE svg PUBLIC "-//W3C//DTD SVG 20010904//EN"
 "http://www.w3.org/TR/2001/REC-SVG-20010904/DTD/svg10.dtd">
<svg version="1.0" xmlns="http://www.w3.org/2000/svg"
 width="512.000000pt" height="512.000000pt" viewBox="0 0 512.000000 512.000000"
 preserveAspectRatio="xMidYMid meet">
<metadata>
Created by potrace 1.11, written by Peter Selinger 2001-2013
</metadata>
<g transform="translate(0.000000,512.000000) scale(0.100000,-0.100000)"
fill="#000000" stroke="none">
<path d="M1679 5105 c-110 -35 -203 -133 -229 -241 -51 -211 109 -414 324
-414 l64 0 145 -272 145 -273 -23 -45 c-35 -70 -47 -162 -30 -238 6 -27 3 -30
-42 -47 -92 -34 -261 -127 -344 -190 -106 -79 -250 -228 -316 -325 -104 -155
-177 -333 -208 -505 -23 -128 -21 -344 4 -464 11 -51 21 -94 23 -96 2 -2 616
-6 1365 -10 l1363 -7 9 25 c43 112 56 388 26 552 -45 251 -161 476 -346 669
-143 150 -307 263 -492 338 -63 26 -76 35 -71 50 8 25 7 139 -2 174 -4 16 -17
49 -29 74 l-22 45 145 273 145 272 63 0 c95 0 167 30 235 99 76 77 103 147 97
251 -7 129 -71 226 -186 282 -58 29 -76 33 -147 33 -66 0 -90 -5 -136 -26
-184 -87 -254 -316 -148 -484 l30 -47 -122 -232 c-166 -312 -149 -286 -179
-278 -33 9 -439 9 -465 0 -19 -7 -35 18 -159 252 l-138 260 26 39 c52 75 70
186 44 275 -16 57 -69 138 -110 170 -87 66 -215 91 -309 61z m516 -2072 c102
-35 187 -113 233 -211 24 -50 27 -69 27 -162 0 -97 -2 -110 -31 -170 -117
-243 -431 -304 -627 -121 -86 80 -127 175 -127 292 0 269 271 461 525 372z
m1003 -5 c107 -40 198 -138 237 -257 27 -82 18 -198 -22 -281 -117 -248 -442
-305 -638 -113 -130 128 -153 340 -54 494 102 159 297 223 477 157z"/>
<path d="M2049 2852 c14 -27 14 -84 -1 -117 -17 -39 -71 -68 -116 -63 -20 3
-45 8 -56 13 -17 8 -18 4 -14 -48 6 -76 43 -128 115 -163 45 -22 63 -26 108
-21 108 11 187 99 187 205 -1 112 -74 193 -188 209 -45 6 -46 5 -35 -15z"/>
<path d="M2986 2855 c-46 -16 -99 -65 -122 -113 -11 -25 -15 -53 -12 -98 5
-78 41 -136 108 -172 63 -33 154 -27 213 14 51 37 87 103 87 162 0 38 -2 43
-17 36 -93 -40 -183 15 -183 112 0 19 5 44 10 55 9 17 7 19 -17 19 -15 -1 -45
-7 -67 -15z"/>
<path d="M1131 1738 c53 -100 187 -265 294 -361 65 -58 184 -150 215 -167 19
-10 20 -23 20 -310 l0 -300 -232 0 c-326 0 -391 -14 -475 -102 -78 -81 -101
-224 -53 -323 30 -62 89 -121 149 -149 45 -20 58 -21 456 -21 398 0 411 1 456
21 60 28 125 93 153 153 20 44 21 62 24 429 l3 384 22 -5 c136 -34 213 -41
397 -41 181 0 289 11 397 40 l22 6 3 -383 3 -384 28 -57 c34 -69 91 -121 164
-148 50 -19 78 -20 438 -20 441 0 454 2 540 86 63 61 88 121 88 209 1 92 -29
160 -94 219 -80 72 -103 76 -416 76 l-273 0 0 303 0 303 74 51 c160 111 302
257 414 423 28 43 52 81 52 84 0 3 -648 6 -1440 6 l-1441 0 12 -22z"/>
</g>
</svg>
